<svg id="icon-hdfk" viewBox="0 0 1024 1024" width="100%" height="100%"><path d="M783.061333 1024H240.938667A240.938667 240.938667 0 0 1 0 783.061333V240.938667A240.938667 240.938667 0 0 1 240.938667 0h542.122666A240.938667 240.938667 0 0 1 1024 240.938667v542.122666A240.938667 240.938667 0 0 1 783.061333 1024z m88.874667-594.133333l-75.434667-150.485334-0.170666 0.085334a15.146667 15.146667 0 0 0-8.234667-7.381334l0.042667-0.170666-210.730667-75.52-0.128 0.384a15.189333 15.189333 0 0 0-5.034667-1.024 14.933333 14.933333 0 0 0-6.272 1.450666l-313.472 74.24 0.085334 0.298667a15.189333 15.189333 0 0 0-9.258667 6.741333L152.746667 428.928l0.213333 0.128a14.805333 14.805333 0 0 0-2.389333 7.68 14.933333 14.933333 0 0 0 8.448 13.312l-0.426667 0.853333 82.346667 40.832v246.186667a14.933333 14.933333 0 0 0 8.405333 13.312l-0.256 0.597333 180.906667 89.898667 0.085333-0.128a14.848 14.848 0 0 0 6.613333 1.706667c1.322667 0 2.517333-0.426667 3.712-0.768l0.085334 0.256 346.453333-89.770667-0.170667-0.853333a14.890667 14.890667 0 0 0 11.349334-14.293334v-265.728l64.938666-20.565333-0.213333-0.725333a14.848 14.848 0 0 0 10.581333-14.165334 14.805333 14.805333 0 0 0-1.749333-6.656l0.256-0.170666z m-412.757333-43.648l316.117333-82.005334 62.08 123.904-302.890667 95.872-75.306666-137.813333z m-159.146667-95.061334l272.469333-64.512 160.341334 57.472-293.717334 76.16-139.093333-69.12z m68.181333 230.058667l-181.674666-90.026667L261.973333 305.92 418.133333 383.488l-49.92 137.728z m1.621334 34.261333c2.048 1.024 4.266667 1.706667 6.656 1.706667a14.933333 14.933333 0 0 0 13.994666-9.984l0.341334 0.128 30.805333-85.077333v200.32l-150.613333-71.082667v-84.821333l98.773333 48.938666 0.042667-0.128z m51.797333 248.448l-150.613333-74.837333v-77.354667l150.613333 71.082667v81.109333z m92.16-255.061333l0.213333 0.426667v-0.042667a14.933333 14.933333 0 0 0 13.056 7.936 14.762667 14.762667 0 0 0 4.48-0.896l0.042667 0.213333L768 481.664v70.101333l-316.245333 101.205334v-217.6l61.354666 112.256c0.170667 0.469333 0.426667 0.853333 0.682667 1.237333zM768 726.784l-316.245333 82.005333v-95.573333L768 611.968v114.773333z" fill="#04BB1B"></path></svg>