<svg id="icon-return" viewBox="0 0 1024 1024" width="100%" height="100%"><path d="M256 0h512a256 256 0 0 1 256 256v512a256 256 0 0 1-256 256H256a256 256 0 0 1-256-256V256a256 256 0 0 1 256-256z m413.696 870.186667a183.552 183.552 0 1 0 0-367.018667 183.552 183.552 0 1 0 0 367.018667z m0.085333-332.16a148.693333 148.693333 0 1 1 0 297.386666 148.693333 148.693333 0 0 1 0-297.386666z m26.24-245.077334v176.810667c11.861333 1.450667 23.552 3.84 34.986667 7.168V293.12a69.973333 69.973333 0 0 0-69.973333-69.973333h-34.986667v34.816h34.986667a34.986667 34.986667 0 0 1 34.986666 34.986666z m-104.277333 17.664a16.810667 16.810667 0 0 0 16.810667-16.810666V187.477333A16.810667 16.810667 0 0 0 591.786667 170.666667h-1.365334a16.810667 16.810667 0 0 0-16.810666 16.810666v106.325334a16.810667 16.810667 0 0 0 16.810666 16.810666h1.365334zM346.154667 223.146667v34.816h209.92V223.146667h-209.92z m-34.304 87.466666a16.810667 16.810667 0 0 0 16.810666-16.810666V187.477333A16.810667 16.810667 0 0 0 311.850667 170.666667h-1.365334a16.810667 16.810667 0 0 0-16.810666 16.810666v106.325334a16.810667 16.810667 0 0 0 16.810666 16.810666h1.365334z m-0.682667 104.021334a16.554667 16.554667 0 0 0-16.554667-16.554667h-1.877333a16.554667 16.554667 0 0 0-16.554667 16.554667v1.877333a16.554667 16.554667 0 0 0 16.554667 16.554667h1.877333a16.554667 16.554667 0 0 0 16.554667-16.554667v-1.877333z m-16.554667 123.392a16.512 16.512 0 0 0 16.554667-16.554667v-1.877333a16.554667 16.554667 0 0 0-16.554667-16.554667h-1.877333a16.554667 16.554667 0 0 0-16.554667 16.554667v1.877333a16.554667 16.554667 0 0 0 16.554667 16.554667h1.877333z m16.554667 88.405333v-1.877333a16.554667 16.554667 0 0 0-16.554667-16.554667h-1.877333a16.554667 16.554667 0 0 0-16.554667 16.554667v1.877333a16.554667 16.554667 0 0 0 16.554667 16.554667h1.877333a16.554667 16.554667 0 0 0 16.554667-16.554667z m51.797333-18.432a16.810667 16.810667 0 0 0-16.810666 16.853333v1.322667a16.810667 16.810667 0 0 0 16.810666 16.810667h92.544c2.432-12.074667 6.058667-23.722667 10.453334-34.986667H362.965333z m-16.810666-191.317333c0 9.045333 7.338667 16.384 16.384 16.384h264.618666a16.384 16.384 0 0 0 16.384-16.384v-2.176a16.384 16.384 0 0 0-16.384-16.426667H362.538667a16.384 16.384 0 0 0-16.384 16.426667v2.133333z m16.810666 121.344h146.773334c12.373333-13.354667 26.368-25.088 41.642666-34.986667H362.965333a16.810667 16.810667 0 0 0-16.810666 16.810667v1.365333a16.810667 16.810667 0 0 0 16.810666 16.810667zM206.208 292.949333a34.986667 34.986667 0 0 1 34.986667-34.986666h34.986666V223.146667h-34.986666a69.973333 69.973333 0 0 0-69.973334 69.973333v454.826667c0 38.656 31.317333 69.973333 69.973334 69.973333h253.952a218.538667 218.538667 0 0 1-21.589334-35.157333H241.194667a34.986667 34.986667 0 0 1-34.986667-34.986667V292.949333z m483.2 335.274667c-37.034667 51.456-48.298667 94.464-51.712 161.92h39.082667c3.157333-76.117333 9.173333-115.712 54.314666-170.837333v-23.338667H602.026667v32.256h87.424z" fill="#04BB1B"></path></svg>