<svg id="icon-wl" viewBox="0 0 1024 1024" width="100%" height="100%"><path d="M256 0h512a256 256 0 0 1 256 256v512a256 256 0 0 1-256 256H256a256 256 0 0 1-256-256V256a256 256 0 0 1 256-256z m568.533333 449.92a567.936 567.936 0 0 0-25.472-33.834667h0.170667l-8.149333-9.6-0.128-0.128a423.552 423.552 0 0 0-30.805334-32.938666c-21.546667-20.309333-32-23.04-39.466666-23.04h-114.517334c-3.157333 0-6.272 0.298667-9.386666 0.981333v-50.773333c0-24.618667-19.968-44.586667-44.586667-44.586667H215.253333C190.634667 256 170.709333 275.968 170.666667 300.586667v350.378666c0 24.618667 19.968 44.544 44.586666 44.586667h51.626667a85.546667 85.546667 0 0 0 83.114667 67.370667c40.106667 0 74.965333-28.629333 83.2-67.413334h119.04c9.728 0.042667 19.2-3.157333 26.965333-9.045333 7.68 5.888 17.152 9.088 26.88 9.088h11.178667a85.546667 85.546667 0 0 0 83.2 67.413333c40.021333 0 74.922667-28.672 83.2-67.413333h24.618666c24.618667 0 44.544-19.968 44.586667-44.586667v-141.482666c0-6.272-1.621333-16.213333-14.08-37.546667a337.962667 337.962667 0 0 0-14.250667-22.016z m-474.538666 277.76a49.834667 49.834667 0 0 1-19.029334-95.744 49.792 49.792 0 1 1 19.029334 95.744z m211.541333-332.757333v256.042666a9.386667 9.386667 0 0 1-9.386667 9.386667h-118.912a84.906667 84.906667 0 0 0-80.554666-67.413333h-5.12a84.778667 84.778667 0 0 0-80.64 67.413333H215.210667a9.386667 9.386667 0 0 1-9.344-9.386667V300.629333a9.386667 9.386667 0 0 1 9.344-9.344h336.938666c5.12 0 9.344 4.181333 9.386667 9.344v94.336z m138.922667 332.8a49.792 49.792 0 1 1 45.994666-30.72c-7.68 18.56-25.856 30.72-45.994666 30.72z m117.248-76.757334h-0.128a9.386667 9.386667 0 0 1-9.344 9.216h-24.618667a85.632 85.632 0 0 0-76.757333-67.157333v0.170667H706.261333a5.674667 5.674667 0 0 0-0.597333-0.085334h-2.517333-0.085334-0.896a0.426667 0.426667 0 0 0-0.213333 0h-3.413333l-0.085334-0.085333v0.085333-0.085333l-0.128 0.085333V593.066667l-0.085333 0.085333-0.085333-0.085333v0.085333-0.085333l-0.128 0.085333v-0.085333l-0.085334 0.042666V593.066667h-2.773333l-0.597333 0.085333V593.066667h-0.085334v0.085333l-0.128-0.085333v0.085333-0.085333l-0.085333 0.128V593.066667h-0.085333v0.128-0.128h-0.085334l-0.853333 0.042666c-37.12 3.157333-68.266667 30.890667-75.946667 67.072h-11.136a9.386667 9.386667 0 0 1-9.386666-9.344V394.922667a9.386667 9.386667 0 0 1 9.386666-9.344h112.938667c1.792 0.896 7.594667 4.352 19.626667 16l2.645333 2.688h-54.314667c-24.618667 0-44.544 19.968-44.586666 44.544v53.930666c0.042667 24.576 19.968 44.544 44.586666 44.544h130.645334v103.68z m-0.128-138.922666h-130.602667a9.386667 9.386667 0 0 1-9.386667-9.301334v-53.930666a9.386667 9.386667 0 0 1 9.386667-9.386667h85.632a530.858667 530.858667 0 0 1 12.373333 15.914667c6.954667 9.301333 13.397333 18.517333 18.517334 26.624l2.389333-1.28-2.218667 1.493333 4.992-2.944-4.906666 3.114667 2.389333 3.797333c10.112 16.554667 11.349333 22.656 11.434667 23.466667v2.432z" fill="#04BB1B"></path></svg>